<?xml version="1.0" encoding="UTF-8" standalone="no" ?>
<!DOCTYPE svg PUBLIC "-//W3C//DTD SVG 1.1//EN" "http://www.w3.org/Graphics/SVG/1.1/DTD/svg11.dtd">
<svg xmlns="http://www.w3.org/2000/svg" xmlns:xlink="http://www.w3.org/1999/xlink" version="1.1" width="302.45375" height="107.15343999999997" xml:space="preserve">
<desc>Created with Fabric.js 1.6.0-rc.1</desc>
<defs></defs>
<g style="stroke: none; stroke-width: 1; stroke-dasharray: none; stroke-linecap: butt; stroke-linejoin: miter; stroke-miterlimit: 10; fill: none; fill-rule: nonzero; opacity: 1;" transform="translate(10 10) scale(0.17 0.17)" >
  <path d="M 85.333 281.6 h 341.333 c 42.667 0 76.8 34.133 76.8 76.8 s -34.133 76.8 -76.8 76.8 H 85.333" style="stroke: none; stroke-width: 1; stroke-dasharray: none; stroke-linecap: butt; stroke-linejoin: miter; stroke-miterlimit: 10; fill: #00ffbf; fill-rule: nonzero; opacity: 1;" transform=" matrix(1 0 0 1 0 0) " stroke-linecap="round" />
  <circle cx="85.33" cy="358.40000000000003" r="76.8" style="stroke: none; stroke-width: 1; stroke-dasharray: none; stroke-linecap: butt; stroke-linejoin: miter; stroke-miterlimit: 10; fill: #FFFFFF; fill-rule: nonzero; opacity: 1;" transform="  matrix(1 0 0 1 0 0) "/>
  <path d="M 85.333 443.733 C 38.4 443.733 0 405.333 0 358.4 s 38.4 -85.333 85.333 -85.333 s 85.333 38.4 85.333 85.333 S 132.267 443.733 85.333 443.733 z M 85.333 290.133 c -37.547 0 -68.267 30.72 -68.267 68.267 s 30.72 68.267 68.267 68.267 S 153.6 395.947 153.6 358.4 S 122.88 290.133 85.333 290.133 z" style="stroke: none; stroke-width: 1; stroke-dasharray: none; stroke-linecap: butt; stroke-linejoin: miter; stroke-miterlimit: 10; fill: #4D5152; fill-rule: nonzero; opacity: 1;" transform=" matrix(1 0 0 1 0 0) " stroke-linecap="round" />
  <path d="M 59.733 358.4 H 42.667 c 0 -23.893 18.773 -42.667 42.667 -42.667 V 332.8 C 70.827 332.8 59.733 343.893 59.733 358.4 z" style="stroke: none; stroke-width: 1; stroke-dasharray: none; stroke-linecap: butt; stroke-linejoin: miter; stroke-miterlimit: 10; fill: #4D5152; fill-rule: nonzero; opacity: 1;" transform=" matrix(1 0 0 1 0 0) " stroke-linecap="round" />
  <path d="M 426.667 443.733 H 85.333 v -17.067 h 341.333 c 37.547 0 68.267 -30.72 68.267 -68.267 s -30.72 -68.267 -68.267 -68.267 H 85.333 v -17.067 h 341.333 c 46.933 0 85.333 38.4 85.333 85.333 S 473.6 443.733 426.667 443.733 z" style="stroke: none; stroke-width: 1; stroke-dasharray: none; stroke-linecap: butt; stroke-linejoin: miter; stroke-miterlimit: 10; fill: #4D5152; fill-rule: nonzero; opacity: 1;" transform=" matrix(1 0 0 1 0 0) " stroke-linecap="round" />
  <rect x="349.87" y="349.87" rx="0" ry="0" width="17.07" height="17.07" style="stroke: none; stroke-width: 1; stroke-dasharray: none; stroke-linecap: butt; stroke-linejoin: miter; stroke-miterlimit: 10; fill: #4D5152; fill-rule: nonzero; opacity: 1;" transform=" matrix(1 0 0 1 0 0) "/>
  <rect x="384" y="349.87" rx="0" ry="0" width="17.07" height="17.07" style="stroke: none; stroke-width: 1; stroke-dasharray: none; stroke-linecap: butt; stroke-linejoin: miter; stroke-miterlimit: 10; fill: #4D5152; fill-rule: nonzero; opacity: 1;" transform=" matrix(1 0 0 1 0 0) "/>
  <rect x="418.13" y="349.87" rx="0" ry="0" width="17.07" height="17.07" style="stroke: none; stroke-width: 1; stroke-dasharray: none; stroke-linecap: butt; stroke-linejoin: miter; stroke-miterlimit: 10; fill: #4D5152; fill-rule: nonzero; opacity: 1;" transform=" matrix(1 0 0 1 0 0) "/>
  <path d="M 426.667 76.8 H 85.333 c -42.667 0 -76.8 34.133 -76.8 76.8 s 34.133 76.8 76.8 76.8 h 341.333" style="stroke: none; stroke-width: 1; stroke-dasharray: none; stroke-linecap: butt; stroke-linejoin: miter; stroke-miterlimit: 10; fill: #30b83b; fill-rule: nonzero; opacity: 1;" transform=" matrix(1 0 0 1 0 0) " stroke-linecap="round" />
  <circle cx="426.67" cy="153.6" r="76.8" style="stroke: none; stroke-width: 1; stroke-dasharray: none; stroke-linecap: butt; stroke-linejoin: miter; stroke-miterlimit: 10; fill: #FFFFFF; fill-rule: nonzero; opacity: 1;" transform="  matrix(1 0 0 1 0 0) "/>
  <path d="M 426.667 238.933 c -46.933 0 -85.333 -38.4 -85.333 -85.333 s 38.4 -85.333 85.333 -85.333 S 512 106.667 512 153.6 S 473.6 238.933 426.667 238.933 z M 426.667 85.333 c -37.547 0 -68.267 30.72 -68.267 68.267 s 30.72 68.267 68.267 68.267 s 68.267 -30.72 68.267 -68.267 S 464.213 85.333 426.667 85.333 z" style="stroke: none; stroke-width: 1; stroke-dasharray: none; stroke-linecap: butt; stroke-linejoin: miter; stroke-miterlimit: 10; fill: #4D5152; fill-rule: nonzero; opacity: 1;" transform=" matrix(1 0 0 1 0 0) " stroke-linecap="round" />
  <path d="M 469.333 153.6 h -17.067 c 0 -14.507 -11.093 -25.6 -25.6 -25.6 v -17.067 C 450.56 110.933 469.333 129.707 469.333 153.6 z" style="stroke: none; stroke-width: 1; stroke-dasharray: none; stroke-linecap: butt; stroke-linejoin: miter; stroke-miterlimit: 10; fill: #4D5152; fill-rule: nonzero; opacity: 1;" transform=" matrix(1 0 0 1 0 0) " stroke-linecap="round" />
  <path d="M 426.667 238.933 H 85.333 C 38.4 238.933 0 200.533 0 153.6 s 38.4 -85.333 85.333 -85.333 h 341.333 v 17.067 H 85.333 c -37.547 0 -68.267 30.72 -68.267 68.267 s 30.72 68.267 68.267 68.267 h 341.333 V 238.933 z" style="stroke: none; stroke-width: 1; stroke-dasharray: none; stroke-linecap: butt; stroke-linejoin: miter; stroke-miterlimit: 10; fill: #4D5152; fill-rule: nonzero; opacity: 1;" transform=" matrix(1 0 0 1 0 0) " stroke-linecap="round" />
  <rect x="145.07" y="145.07" rx="0" ry="0" width="17.07" height="17.07" style="stroke: none; stroke-width: 1; stroke-dasharray: none; stroke-linecap: butt; stroke-linejoin: miter; stroke-miterlimit: 10; fill: #4D5152; fill-rule: nonzero; opacity: 1;" transform=" matrix(1 0 0 1 0 0) "/>
  <rect x="110.93" y="145.07" rx="0" ry="0" width="17.07" height="17.07" style="stroke: none; stroke-width: 1; stroke-dasharray: none; stroke-linecap: butt; stroke-linejoin: miter; stroke-miterlimit: 10; fill: #4D5152; fill-rule: nonzero; opacity: 1;" transform=" matrix(1 0 0 1 0 0) "/>
  <rect x="76.8" y="145.07" rx="0" ry="0" width="17.07" height="17.07" style="stroke: none; stroke-width: 1; stroke-dasharray: none; stroke-linecap: butt; stroke-linejoin: miter; stroke-miterlimit: 10; fill: #4D5152; fill-rule: nonzero; opacity: 1;" transform=" matrix(1 0 0 1 0 0) "/>
</g>
  <g transform="translate(137.78 60.51) scale(0.88 1.42)">
   <text font-family="Kronika" font-size="40" font-weight="bold" style="stroke: none; stroke-width: 1; stroke-dasharray: none; stroke-linecap: butt; stroke-linejoin: miter; stroke-miterlimit: 10; fill: #e35b32; fill-rule: nonzero; opacity: 1;" ><tspan x="-50.09" y="8.98" style="stroke: none; stroke-width: 0; stroke-dasharray: none; stroke-linecap: butt; stroke-linejoin: miter; stroke-miterlimit: 4; fill: #e35b32; fill-rule: ; opacity: 1;">C</tspan><tspan x="-22.22" y="8.98" style="stroke: none; stroke-width: 0; stroke-dasharray: none; stroke-linecap: butt; stroke-linejoin: miter; stroke-miterlimit: 4; fill: #e35b32; fill-rule: ; opacity: 1;">o</tspan><tspan x="0.99" y="8.98" style="stroke: none; stroke-width: 0; stroke-dasharray: none; stroke-linecap: butt; stroke-linejoin: miter; stroke-miterlimit: 4; fill: #e35b32; fill-rule: ; opacity: 1;">d</tspan><tspan x="25.71" y="8.98" style="stroke: none; stroke-width: 0; stroke-dasharray: none; stroke-linecap: butt; stroke-linejoin: miter; stroke-miterlimit: 4; fill: #e35b32; fill-rule: ; opacity: 1;">e</tspan></text>
 </g>
  <g transform="translate(235.8 60.64) scale(0.88 1.42)">
   <text font-family="Kronika" font-size="40" font-weight="bold" style="stroke: none; stroke-width: 1; stroke-dasharray: none; stroke-linecap: butt; stroke-linejoin: miter; stroke-miterlimit: 10; fill: #03060a; fill-rule: nonzero; opacity: 1;" ><tspan x="-64.88" y="8.98" style="stroke: none; stroke-width: 0; stroke-dasharray: none; stroke-linecap: butt; stroke-linejoin: miter; stroke-miterlimit: 4; fill: #03060a; fill-rule: ; opacity: 1;">W</tspan><tspan x="-22.19" y="8.98" style="stroke: none; stroke-width: 0; stroke-dasharray: none; stroke-linecap: butt; stroke-linejoin: miter; stroke-miterlimit: 4; fill: #03060a; fill-rule: ; opacity: 1;">o</tspan><tspan x="1.02" y="8.98" style="stroke: none; stroke-width: 0; stroke-dasharray: none; stroke-linecap: butt; stroke-linejoin: miter; stroke-miterlimit: 4; fill: #03060a; fill-rule: ; opacity: 1;">r</tspan><tspan x="19.34" y="8.98" style="stroke: none; stroke-width: 0; stroke-dasharray: none; stroke-linecap: butt; stroke-linejoin: miter; stroke-miterlimit: 4; fill: #03060a; fill-rule: ; opacity: 1;">d</tspan><tspan x="44.06" y="8.98" style="stroke: none; stroke-width: 0; stroke-dasharray: none; stroke-linecap: butt; stroke-linejoin: miter; stroke-miterlimit: 4; fill: #03060a; fill-rule: ; opacity: 1;">s</tspan></text>
 </g>
</svg>